<svg xmlns="http://www.w3.org/2000/svg" width="78" height="42" viewBox="0 0 78 42"><defs><style>.a,.b{fill:#fff;}.a{font-size:10px;font-family:Helvetica-Bold, Helvetica;font-weight:700;}</style></defs><g transform="translate(-644 -520)"><text class="a" transform="translate(683 528)"><tspan x="-38.154" y="0">დაუყევი საიტს</tspan></text><g transform="translate(691.419 450.526) rotate(90)"><g transform="translate(101.478)"><path class="b" d="M111.2,7.843,103.631.272a.933.933,0,0,0-1.316,0l-.558.557a.932.932,0,0,0,0,1.316L108.115,8.5l-6.365,6.365a.933.933,0,0,0,0,1.316l.558.557a.933.933,0,0,0,1.316,0L111.2,9.164a.939.939,0,0,0,0-1.321Z" transform="translate(-101.478)"/></g></g></g></svg>